<?xml version="1.0" encoding="utf-8" standalone="no"?>
<!DOCTYPE svg PUBLIC "-//W3C//DTD SVG 1.1//EN"
  "http://www.w3.org/Graphics/SVG/1.1/DTD/svg11.dtd">
<svg height="325.5408pt" version="1.1" viewBox="0 0 460.8 325.5408" width="460.8pt" xmlns="http://www.w3.org/2000/svg" xmlns:xlink="http://www.w3.org/1999/xlink">
 <metadata>
  <rdf:RDF xmlns:cc="http://creativecommons.org/ns#" xmlns:dc="http://purl.org/dc/elements/1.1/" xmlns:rdf="http://www.w3.org/1999/02/22-rdf-syntax-ns#">
   <cc:Work>
    <dc:type rdf:resource="http://purl.org/dc/dcmitype/StillImage"/>
    <dc:date>2021-09-02T16:42:24.061308</dc:date>
    <dc:format>image/svg+xml</dc:format>
    <dc:creator>
     <cc:Agent>
      <dc:title>Matplotlib v3.4.2, https://matplotlib.org/</dc:title>
     </cc:Agent>
    </dc:creator>
   </cc:Work>
  </rdf:RDF>
 </metadata>
 <defs>
  <style type="text/css">*{stroke-linecap:butt;stroke-linejoin:round;}</style>
 </defs>
 <g id="figure_1">
  <g id="patch_1">
   <path d="M 0 325.5408 
L 460.8 325.5408 
L 460.8 0 
L 0 0 
z
" style="fill:none;"/>
  </g>
  <g id="axes_1">
   <g id="line2d_1">
    <path clip-path="url(#p373ab60f7e)" d="M 27.490909 162.7704 
L 433.309091 162.7704 
" style="fill:none;stroke:#2ca02c;stroke-dasharray:5.55,2.4;stroke-dashoffset:0;stroke-width:1.5;"/>
   </g>
   <g id="line2d_2">
    <path clip-path="url(#p373ab60f7e)" d="M 413.018182 162.7704 
L 413.018182 289.081309 
L 408.452727 304.198036 
L 361.783636 304.198036 
L 293.301818 213.802036 
L 293.301818 188.032582 
L 279.098182 188.032582 
L 279.098182 135.377673 
L 279.098182 190.163127 
L 279.098182 137.508218 
L 293.301818 137.508218 
L 293.301818 111.738764 
L 361.783636 21.342764 
L 408.452727 21.342764 
L 413.018182 36.459491 
L 413.018182 162.7704 
" style="fill:none;stroke:#000000;stroke-linecap:square;stroke-width:1.5;"/>
   </g>
   <g id="line2d_3">
    <path clip-path="url(#p373ab60f7e)" d="M 378.854917 212.069421 
L 381.960668 211.306613 
L 385.066419 210.218864 
L 388.172171 208.744684 
L 391.345683 206.734036 
L 394.521139 204.069574 
L 397.489425 200.756838 
L 398.983704 198.740648 
L 400.595176 196.058442 
L 402.003645 193.411722 
L 403.700928 189.248613 
L 404.145409 188.082797 
L 405.019127 185.418334 
L 405.737403 182.753871 
L 406.799266 177.424945 
L 407.571993 172.09602 
L 407.978262 166.767094 
L 408.05758 161.438169 
L 407.817708 156.109243 
L 407.234997 150.780317 
L 406.32457 145.451392 
L 405.737403 142.786929 
L 405.019127 140.122466 
L 403.700928 136.292187 
L 403.15458 134.79354 
L 402.003645 132.129078 
L 400.585769 129.464615 
L 398.983704 126.800152 
L 396.985842 124.135689 
L 394.383673 121.342024 
L 391.277922 118.758076 
L 388.172171 116.796116 
L 385.066419 115.321936 
L 381.960668 114.234187 
L 378.854917 113.471379 
L 375.749165 112.951957 
L 372.643414 112.662612 
L 369.537662 112.571862 
L 366.431911 112.657217 
L 363.32616 112.903158 
L 359.240145 113.477838 
L 357.114657 113.822989 
L 354.008905 114.474261 
L 350.903154 115.264084 
L 344.691651 117.227261 
L 340.691414 118.806764 
L 338.480148 119.734026 
L 334.892698 121.471226 
L 332.268646 122.851224 
L 329.162894 124.681091 
L 325.947226 126.800152 
L 322.382757 129.464615 
L 319.269424 132.129078 
L 316.550715 134.79354 
L 313.634137 138.140139 
L 312.099367 140.122466 
L 310.326382 142.786929 
L 308.789143 145.451392 
L 307.422635 148.383215 
L 306.463076 150.780317 
L 305.632204 153.44478 
L 305.024091 156.109243 
L 304.62605 158.773706 
L 304.429281 161.438169 
L 304.429281 164.102631 
L 304.62605 166.767094 
L 305.024091 169.431557 
L 305.632204 172.09602 
L 306.463076 174.760483 
L 307.526883 177.424945 
L 308.789143 180.089408 
L 310.528386 183.058289 
L 312.099367 185.418334 
L 314.172586 188.082797 
L 316.739889 190.939817 
L 319.84564 193.928126 
L 322.951391 196.527459 
L 326.057143 198.818417 
L 330.081903 201.405111 
L 332.268646 202.689576 
L 335.374397 204.325374 
L 338.480148 205.806774 
L 344.691651 208.313539 
L 350.903154 210.276716 
L 354.008905 211.066539 
L 359.240145 212.062962 
L 360.220408 212.241183 
L 363.32616 212.637642 
L 366.431911 212.883583 
L 369.537662 212.968938 
L 372.643414 212.878188 
L 375.749165 212.588843 
L 378.854917 212.069421 
L 378.854917 212.069421 
" style="fill:none;stroke:#1f77b4;stroke-linecap:square;stroke-width:1.5;"/>
   </g>
   <g id="line2d_4">
    <path clip-path="url(#p373ab60f7e)" d="M 52.854545 188.134036 
L 52.854545 137.406764 
L 103.581818 137.406764 
L 103.581818 86.679491 
L 154.309091 86.679491 
L 154.309091 137.406764 
L 205.036364 137.406764 
L 205.036364 188.134036 
L 154.309091 188.134036 
L 154.309091 238.861309 
L 103.581818 238.861309 
L 103.581818 188.134036 
L 52.854545 188.134036 
" style="fill:none;stroke:#000000;stroke-linecap:square;stroke-width:1.5;"/>
   </g>
  </g>
 </g>
 <defs>
  <clipPath id="p373ab60f7e">
   <rect height="311.1408" width="446.4" x="7.2" y="7.2"/>
  </clipPath>
 </defs>
</svg>
