<?xml version="1.0" encoding="utf-8" standalone="no"?>
<!DOCTYPE svg PUBLIC "-//W3C//DTD SVG 1.1//EN"
  "http://www.w3.org/Graphics/SVG/1.1/DTD/svg11.dtd">
<svg height="322.416pt" version="1.1" viewBox="0 0 460.8 322.416" width="460.8pt" xmlns="http://www.w3.org/2000/svg" xmlns:xlink="http://www.w3.org/1999/xlink">
 <metadata>
  <rdf:RDF xmlns:cc="http://creativecommons.org/ns#" xmlns:dc="http://purl.org/dc/elements/1.1/" xmlns:rdf="http://www.w3.org/1999/02/22-rdf-syntax-ns#">
   <cc:Work>
    <dc:type rdf:resource="http://purl.org/dc/dcmitype/StillImage"/>
    <dc:date>2021-09-02T16:42:29.746251</dc:date>
    <dc:format>image/svg+xml</dc:format>
    <dc:creator>
     <cc:Agent>
      <dc:title>Matplotlib v3.4.2, https://matplotlib.org/</dc:title>
     </cc:Agent>
    </dc:creator>
   </cc:Work>
  </rdf:RDF>
 </metadata>
 <defs>
  <style type="text/css">*{stroke-linecap:butt;stroke-linejoin:round;}</style>
 </defs>
 <g id="figure_1">
  <g id="patch_1">
   <path d="M 0 322.416 
L 460.8 322.416 
L 460.8 0 
L 0 0 
z
" style="fill:none;"/>
  </g>
  <g id="axes_1">
   <g id="line2d_1">
    <path clip-path="url(#pdf28f75ac1)" d="M 27.490909 161.208 
L 433.309091 161.208 
" style="fill:none;stroke:#2ca02c;stroke-dasharray:5.55,2.4;stroke-dashoffset:0;stroke-width:1.5;"/>
   </g>
   <g id="line2d_2">
    <path clip-path="url(#pdf28f75ac1)" d="M 52.854545 186.571636 
L 52.854545 135.844364 
L 103.581818 135.844364 
L 103.581818 85.117091 
L 154.309091 85.117091 
L 154.309091 135.844364 
L 205.036364 135.844364 
L 205.036364 186.571636 
L 154.309091 186.571636 
L 154.309091 237.298909 
L 103.581818 237.298909 
L 103.581818 186.571636 
L 52.854545 186.571636 
" style="fill:none;stroke:#000000;stroke-linecap:square;stroke-width:1.5;"/>
   </g>
   <g id="line2d_3">
    <path clip-path="url(#pdf28f75ac1)" d="M 433.309091 21.200727 
L 426.717576 21.355977 
L 420.140679 21.821382 
L 413.592986 22.59591 
L 407.089018 23.677843 
L 400.6432 25.064781 
L 394.269825 26.75365 
L 387.98303 28.740704 
L 381.796756 31.021535 
L 375.724723 33.591085 
L 369.780397 36.443656 
L 363.976961 39.572922 
L 358.327285 42.971943 
L 352.8439 46.63318 
L 347.538965 50.548514 
L 342.424245 54.709262 
L 337.511085 59.106196 
L 332.810379 63.729565 
L 328.332553 68.569115 
L 324.087538 73.614115 
L 320.084747 78.853374 
L 316.333058 84.275275 
L 312.840791 89.867792 
L 309.615692 95.618523 
L 306.664912 101.514715 
L 303.994995 107.54329 
L 301.611864 113.69088 
L 299.520802 119.94385 
L 297.726447 126.288333 
L 296.232779 132.710259 
L 295.599764 135.945818 
L 295.599764 135.945818 
L 279.098182 135.945818 
L 279.098182 186.470182 
L 295.599764 186.470182 
L 295.599764 186.470182 
L 296.941805 192.925498 
L 298.586272 199.310473 
L 300.529519 205.610946 
L 302.767236 211.812946 
L 305.294461 217.902717 
L 308.105588 223.866753 
L 311.194385 229.69183 
L 314.553999 235.365027 
L 318.176982 240.873763 
L 322.055297 246.205822 
L 326.180343 251.349377 
L 330.542974 256.293023 
L 335.133512 261.025795 
L 339.941778 265.537197 
L 344.957109 269.817225 
L 350.168381 273.856386 
L 355.564037 277.645722 
L 361.132112 281.17683 
L 366.860256 284.441878 
L 372.735766 287.433626 
L 378.745612 290.145439 
L 384.876465 292.571302 
L 391.114729 294.705836 
L 397.446569 296.544307 
L 403.857943 298.082637 
L 410.334632 299.317416 
L 416.862272 300.245903 
L 423.426387 300.866042 
L 430.012419 301.176455 
L 433.309091 301.215273 
L 433.309091 181.498909 
L 431.152299 181.383957 
L 429.019945 181.040403 
L 426.936189 180.472141 
L 424.92464 179.685607 
L 423.00809 178.689716 
L 421.208255 177.495749 
L 419.545527 176.117235 
L 418.038746 174.569795 
L 416.704984 172.870959 
L 415.559353 171.039978 
L 414.614833 169.097596 
L 413.882127 167.065822 
L 413.369537 164.967677 
L 413.082869 162.826933 
L 413.025373 160.667845 
L 413.197699 158.514878 
L 413.597895 156.392426 
L 414.221427 154.324535 
L 415.06123 152.334637 
L 416.107789 150.445278 
L 417.349245 148.677864 
L 418.771532 147.052422 
L 420.358536 145.587369 
L 422.092275 144.299303 
L 423.953105 143.20282 
L 425.919942 142.310342 
L 427.970501 141.631983 
L 430.081548 141.175428 
L 432.229165 140.945849 
L 433.309091 140.917091 
L 433.309091 21.200727 
L 433.309091 21.200727 
" style="fill:none;stroke:#000000;stroke-linecap:square;stroke-width:1.5;"/>
   </g>
  </g>
 </g>
 <defs>
  <clipPath id="pdf28f75ac1">
   <rect height="308.016" width="446.4" x="7.2" y="7.2"/>
  </clipPath>
 </defs>
</svg>
